<?xml version="1.0" encoding="utf-8"?>
<!-- Generator: Adobe Illustrator 28.4.1, SVG Export Plug-In . SVG Version: 6.00 Build 0)  -->
<svg version="1.1" xmlns="http://www.w3.org/2000/svg" xmlns:xlink="http://www.w3.org/1999/xlink" x="0px" y="0px"
	 viewBox="0 0 466.6 116.3" style="enable-background:new 0 0 466.6 116.3;" xml:space="preserve">
<style type="text/css">
	.st0{fill:#A11D21;}
	.st1{fill:none;stroke:#A11D21;stroke-width:5;stroke-miterlimit:10;}
	.st2{fill:none;stroke:#A11D21;stroke-width:2;stroke-linecap:round;stroke-miterlimit:10;}
</style>
<g id="Layer_1">
	<g>
		<path class="st0" d="M107.6,60.3c-1,0-1.8-0.3-2.4-1s-1-1.5-1-2.4V7.5c0-1,0.3-1.8,1-2.4c0.6-0.6,1.5-0.9,2.4-0.9
			c1.3,0,2.4,0.6,3,1.8l23.2,46.3h-2.4l22.7-46.3c0.7-1.2,1.7-1.8,3-1.8c1,0,1.8,0.3,2.4,0.9c0.6,0.6,1,1.4,1,2.4V57
			c0,1-0.3,1.8-1,2.4c-0.7,0.6-1.5,1-2.4,1c-1,0-1.8-0.3-2.4-1s-1-1.5-1-2.4V16.6l1.3-0.1l-19.7,40.3c-0.7,1.2-1.7,1.7-3,1.7
			c-1.4,0-2.5-0.7-3.1-2.1L109.6,17l1.4-0.4V57c0,1-0.3,1.8-1,2.4S108.6,60.3,107.6,60.3z"/>
		<path class="st0" d="M178.4,14.1c-1.2,0-2.2-0.4-3.1-1.3c-0.9-0.9-1.3-1.9-1.3-3.2c0-1.2,0.4-2.3,1.3-3.1c0.9-0.8,1.9-1.3,3.1-1.3
			c1.2,0,2.2,0.4,3.1,1.3c0.9,0.8,1.3,1.9,1.3,3.1c0,1.2-0.4,2.3-1.3,3.2C180.7,13.7,179.7,14.1,178.4,14.1z M178.5,60.3
			c-1,0-1.8-0.3-2.4-0.9c-0.6-0.6-0.9-1.4-0.9-2.4V24.3c0-1,0.3-1.8,0.9-2.4c0.6-0.6,1.4-0.9,2.4-0.9c1,0,1.8,0.3,2.4,0.9
			c0.6,0.6,0.9,1.4,0.9,2.4V57c0,1-0.3,1.8-0.9,2.4C180.2,60,179.4,60.3,178.5,60.3z"/>
		<path class="st0" d="M198.9,60.4c-1,0-1.8-0.3-2.4-0.9c-0.6-0.6-0.9-1.4-0.9-2.4V24.3c0-1,0.3-1.8,0.9-2.4
			c0.6-0.6,1.4-0.9,2.4-0.9c1,0,1.8,0.3,2.4,0.9c0.6,0.6,0.9,1.4,0.9,2.4v32.8c0,1-0.3,1.8-0.9,2.4
			C200.7,60.1,199.9,60.4,198.9,60.4z M229.1,60.4c-1,0-1.8-0.3-2.4-1s-1-1.4-1-2.3V39c0-2.8-0.5-5.1-1.6-6.9
			c-1.1-1.8-2.5-3.1-4.2-4c-1.8-0.9-3.8-1.3-6.1-1.3c-2.2,0-4.1,0.4-5.8,1.3c-1.7,0.9-3.1,2-4.1,3.5c-1,1.4-1.5,3.1-1.5,5h-4.3
			c0-3,0.8-5.7,2.3-8.1c1.5-2.4,3.5-4.2,6-5.6c2.5-1.4,5.4-2.1,8.6-2.1c3.4,0,6.4,0.7,9,2.1c2.6,1.4,4.7,3.5,6.3,6.2
			c1.5,2.7,2.3,6.1,2.3,10v18.1c0,0.9-0.3,1.7-1,2.3C230.8,60.1,230,60.4,229.1,60.4z"/>
		<path class="st0" d="M262.4,60.6c-3.7,0-7.1-0.9-10.1-2.6c-3-1.8-5.4-4.1-7.1-7.2c-1.8-3-2.6-6.4-2.6-10.2c0-3.8,0.8-7.2,2.4-10.2
			c1.6-3,3.9-5.4,6.7-7.1c2.8-1.8,6-2.6,9.6-2.6c3,0,5.7,0.6,8.2,1.9c2.5,1.2,4.5,2.9,6.2,5V7.4c0-1,0.3-1.8,0.9-2.4
			c0.6-0.6,1.4-0.9,2.4-0.9c1,0,1.8,0.3,2.4,0.9c0.6,0.6,0.9,1.4,0.9,2.4v33.3c0,3.7-0.9,7.1-2.7,10.2c-1.8,3-4.1,5.4-7.1,7.1
			C269.5,59.8,266.2,60.6,262.4,60.6z M262.4,54.7c2.6,0,4.9-0.6,6.9-1.8c2-1.2,3.6-2.9,4.8-5c1.2-2.1,1.8-4.5,1.8-7.2
			c0-2.7-0.6-5.1-1.8-7.2c-1.2-2.1-2.8-3.8-4.8-5c-2-1.2-4.3-1.8-6.9-1.8c-2.5,0-4.8,0.6-6.8,1.8c-2.1,1.2-3.7,2.9-4.9,5
			c-1.2,2.1-1.8,4.5-1.8,7.2c0,2.7,0.6,5.1,1.8,7.2c1.2,2.1,2.8,3.8,4.9,5C257.7,54.1,259.9,54.7,262.4,54.7z"/>
		<path class="st0" d="M321.3,61.1c-3.9,0-7.5-0.7-10.9-2.2c-3.4-1.5-6.3-3.5-8.9-6.2c-2.5-2.6-4.5-5.7-5.9-9.2
			c-1.4-3.5-2.2-7.3-2.2-11.3c0-4,0.7-7.7,2.1-11.2c1.4-3.5,3.4-6.5,5.9-9.2c2.5-2.6,5.5-4.7,8.9-6.2c3.4-1.5,7-2.2,10.9-2.2
			c3.6,0,6.8,0.5,9.5,1.5c2.7,1,5.4,2.6,8.1,4.8c0.4,0.3,0.7,0.6,0.8,1c0.2,0.4,0.2,0.7,0.2,1.1c0,0.4-0.1,0.7-0.3,1
			c0,0.7-0.3,1.3-0.9,1.7c-0.6,0.4-1.2,0.7-1.9,0.7c-0.7,0-1.5-0.2-2.2-0.8c-1.8-1.6-3.7-2.8-5.8-3.6c-2-0.8-4.6-1.2-7.6-1.2
			c-2.9,0-5.7,0.6-8.2,1.8c-2.6,1.2-4.8,2.8-6.8,4.9c-2,2.1-3.5,4.5-4.6,7.2c-1.1,2.7-1.7,5.6-1.7,8.7c0,3.2,0.6,6.1,1.7,8.8
			c1.1,2.7,2.6,5.1,4.6,7.2c2,2.1,4.2,3.7,6.8,4.9c2.6,1.2,5.3,1.7,8.2,1.7c2.5,0,4.9-0.4,7.2-1.3c2.3-0.8,4.4-2,6.4-3.6
			c0.8-0.6,1.5-0.8,2.3-0.8c0.8,0.1,1.4,0.4,1.9,0.9c0.5,0.6,0.8,1.3,0.8,2.3c0,0.4-0.1,0.9-0.2,1.3c-0.1,0.4-0.4,0.8-0.8,1.1
			c-2.5,2.2-5.2,3.7-8.2,4.8C327.6,60.6,324.5,61.1,321.3,61.1z"/>
		<path class="st0" d="M365,60.6c-3.6,0-6.8-0.9-9.6-2.6c-2.8-1.7-5.1-4.1-6.7-7.1c-1.6-3-2.4-6.4-2.4-10.2c0-3.8,0.9-7.3,2.6-10.3
			c1.8-3,4.1-5.4,7.1-7.1c3-1.8,6.4-2.6,10.1-2.6c3.8,0,7.2,0.9,10.2,2.6c3,1.8,5.3,4.1,7.1,7.2c1.8,3,2.7,6.4,2.7,10.2l-2.6,0.6
			c0,3.6-0.8,6.9-2.4,9.9c-1.6,2.9-3.8,5.2-6.6,6.9C371.6,59.8,368.5,60.6,365,60.6z M366,54.7c2.6,0,4.9-0.6,6.9-1.8
			c2-1.2,3.6-2.9,4.8-5c1.2-2.1,1.8-4.5,1.8-7.2c0-2.7-0.6-5.1-1.8-7.2c-1.2-2.1-2.8-3.8-4.8-5c-2-1.2-4.3-1.8-6.9-1.8
			c-2.5,0-4.8,0.6-6.8,1.8c-2.1,1.2-3.7,2.9-4.9,5c-1.2,2.1-1.8,4.5-1.8,7.2c0,2.6,0.6,5,1.8,7.2c1.2,2.1,2.8,3.8,4.9,5
			C361.3,54.1,363.5,54.7,366,54.7z M382.6,60.4c-1,0-1.8-0.3-2.4-0.9c-0.6-0.6-0.9-1.4-0.9-2.4V45.6l1.4-6.9l5.3,2v16.4
			c0,1-0.3,1.8-1,2.4C384.4,60.1,383.6,60.4,382.6,60.4z"/>
		<path class="st0" d="M400.1,60.3c-1,0-1.8-0.3-2.4-0.8c-0.6-0.6-0.9-1.4-0.9-2.4V24.2c0-1,0.3-1.8,0.9-2.4s1.4-0.9,2.4-0.9
			c1.1,0,1.9,0.3,2.5,0.8c0.6,0.6,0.8,1.4,0.8,2.4v32.9c0,1-0.3,1.8-0.8,2.4C402,60,401.2,60.3,400.1,60.3z M399.9,35.9
			c0.1-2.9,0.9-5.5,2.3-7.8c1.4-2.3,3.3-4.1,5.7-5.5c2.4-1.3,4.9-2,7.8-2c2.6,0,4.6,0.4,5.9,1.2c1.3,0.8,1.8,1.8,1.5,3.1
			c-0.1,0.7-0.4,1.2-0.9,1.5c-0.4,0.3-0.9,0.5-1.5,0.5c-0.6,0-1.2,0-1.9-0.1c-2.9-0.5-5.5-0.4-7.8,0.2c-2.3,0.6-4.1,1.7-5.5,3.2
			c-1.3,1.5-2,3.4-2,5.6H399.9z"/>
		<path class="st0" d="M446.5,60.6c-4,0-7.5-0.9-10.5-2.6c-3-1.7-5.4-4.1-7.2-7.1c-1.7-3-2.6-6.4-2.6-10.3c0-3.9,0.8-7.4,2.4-10.4
			c1.6-3,3.9-5.4,6.8-7.1c2.9-1.7,6.2-2.6,10-2.6c3.7,0,6.9,0.8,9.6,2.5c2.7,1.7,4.8,3.9,6.2,6.8c1.4,2.9,2.2,6.3,2.2,10
			c0,0.8-0.3,1.5-0.8,2.1c-0.6,0.6-1.3,0.8-2.2,0.8h-29.6v-5.3h29.7l-3,2.1c0-2.5-0.6-4.8-1.5-6.8c-1-2-2.3-3.6-4.1-4.8
			c-1.8-1.2-3.9-1.7-6.4-1.7c-2.7,0-5.1,0.6-7.1,1.9c-2,1.2-3.5,3-4.6,5.1c-1.1,2.2-1.6,4.6-1.6,7.3c0,2.7,0.6,5.2,1.8,7.3
			c1.2,2.1,2.9,3.8,5,5.1c2.1,1.2,4.6,1.9,7.5,1.9c1.5,0,3.1-0.3,4.8-0.9c1.7-0.6,3-1.2,3.9-2c0.7-0.5,1.4-0.8,2.2-0.8
			c0.8,0,1.4,0.2,2,0.7c0.7,0.7,1.1,1.4,1.2,2.2s-0.3,1.5-1,2.1c-1.6,1.3-3.7,2.4-6.1,3.2C451,60.2,448.7,60.6,446.5,60.6z"/>
	</g>
	<g>
		<path class="st0" d="M112,76.5c-0.9,0-1.6-0.3-2.3-0.9c-0.6-0.6-0.9-1.4-0.9-2.3c0-0.9,0.3-1.7,1-2.3c0.6-0.6,1.4-0.9,2.3-0.9
			c0.8,0,1.6,0.3,2.2,0.9c0.6,0.6,1,1.4,1,2.3c0,0.9-0.3,1.7-0.9,2.3C113.7,76.2,112.9,76.5,112,76.5z M112.1,110.1
			c-0.7,0-1.3-0.2-1.8-0.7c-0.5-0.5-0.7-1-0.7-1.7V83.9c0-0.7,0.2-1.3,0.7-1.8c0.5-0.4,1-0.7,1.8-0.7c0.7,0,1.3,0.2,1.7,0.7
			c0.5,0.4,0.7,1,0.7,1.8v23.9c0,0.7-0.2,1.3-0.7,1.7C113.3,109.9,112.8,110.1,112.1,110.1z"/>
		<path class="st0" d="M126.9,110.2c-0.7,0-1.3-0.2-1.7-0.7c-0.5-0.5-0.7-1-0.7-1.7V83.9c0-0.7,0.2-1.3,0.7-1.8
			c0.5-0.4,1-0.7,1.7-0.7c0.7,0,1.3,0.2,1.8,0.7c0.4,0.4,0.7,1,0.7,1.8v23.9c0,0.7-0.2,1.3-0.7,1.7
			C128.3,110,127.7,110.2,126.9,110.2z M148.9,110.2c-0.7,0-1.3-0.2-1.8-0.7c-0.5-0.5-0.7-1-0.7-1.7V94.6c0-2.1-0.4-3.7-1.2-5.1
			c-0.8-1.3-1.8-2.3-3.1-2.9c-1.3-0.6-2.8-1-4.5-1c-1.6,0-3,0.3-4.2,0.9c-1.3,0.6-2.3,1.5-3,2.5c-0.8,1-1.1,2.3-1.1,3.6h-3.1
			c0-2.2,0.6-4.2,1.7-5.9c1.1-1.7,2.6-3.1,4.4-4.1c1.9-1,3.9-1.5,6.2-1.5c2.4,0,4.6,0.5,6.6,1.5c1.9,1,3.4,2.5,4.6,4.5
			c1.1,2,1.7,4.4,1.7,7.3v13.2c0,0.7-0.2,1.2-0.7,1.7C150.1,110,149.6,110.2,148.9,110.2z"/>
		<path class="st0" d="M158.7,86.7c-0.6,0-1.2-0.2-1.6-0.6c-0.4-0.4-0.6-0.9-0.6-1.5c0-0.6,0.2-1.1,0.6-1.5c0.4-0.4,0.9-0.6,1.6-0.6
			h12.6c0.6,0,1.2,0.2,1.6,0.6c0.4,0.4,0.6,0.9,0.6,1.5c0,0.6-0.2,1.1-0.6,1.5c-0.4,0.4-0.9,0.6-1.6,0.6H158.7z M170.9,110.1
			c-1.8,0-3.4-0.4-4.8-1.3c-1.4-0.9-2.6-2.1-3.4-3.6c-0.8-1.5-1.2-3.3-1.2-5.2V74.8c0-0.7,0.2-1.3,0.7-1.7c0.4-0.5,1-0.7,1.7-0.7
			c0.7,0,1.3,0.2,1.7,0.7c0.5,0.5,0.7,1,0.7,1.7V100c0,1.6,0.4,2.9,1.3,3.9c0.9,1,2,1.5,3.3,1.5h1.6c0.6,0,1.1,0.2,1.5,0.7
			c0.4,0.5,0.6,1,0.6,1.7c0,0.7-0.3,1.3-0.8,1.7c-0.5,0.4-1.2,0.7-2,0.7H170.9z"/>
		<path class="st0" d="M194.5,110.3c-2.9,0-5.5-0.6-7.7-1.9c-2.2-1.2-4-3-5.2-5.1c-1.3-2.2-1.9-4.7-1.9-7.5c0-2.9,0.6-5.4,1.8-7.6
			c1.2-2.2,2.8-3.9,4.9-5.1c2.1-1.2,4.5-1.9,7.3-1.9c2.7,0,5,0.6,7,1.8c2,1.2,3.5,2.9,4.5,5c1,2.1,1.6,4.6,1.6,7.3
			c0,0.6-0.2,1.1-0.6,1.5c-0.4,0.4-0.9,0.6-1.6,0.6H183v-3.9h21.6l-2.1,1.5c0-1.9-0.4-3.5-1.1-5c-0.7-1.5-1.7-2.6-3-3.5
			c-1.3-0.8-2.8-1.3-4.7-1.3c-2,0-3.7,0.5-5.2,1.4c-1.5,0.9-2.6,2.1-3.3,3.7c-0.8,1.6-1.2,3.4-1.2,5.3c0,2,0.4,3.8,1.3,5.3
			c0.9,1.6,2.1,2.8,3.7,3.7c1.6,0.9,3.4,1.4,5.4,1.4c1.1,0,2.3-0.2,3.5-0.6c1.2-0.4,2.2-0.9,2.9-1.5c0.5-0.4,1-0.6,1.6-0.6
			c0.6,0,1,0.1,1.5,0.5c0.5,0.5,0.8,1,0.8,1.6c0,0.6-0.2,1.1-0.7,1.5c-1.2,0.9-2.7,1.7-4.4,2.3C197.8,110,196.1,110.3,194.5,110.3z"
			/>
		<path class="st0" d="M215.9,110.1c-0.7,0-1.3-0.2-1.7-0.6c-0.4-0.4-0.6-1-0.6-1.8v-24c0-0.7,0.2-1.3,0.6-1.7
			c0.4-0.4,1-0.6,1.7-0.6c0.8,0,1.4,0.2,1.8,0.6c0.4,0.4,0.6,1,0.6,1.8v24c0,0.7-0.2,1.3-0.6,1.7
			C217.4,109.9,216.8,110.1,215.9,110.1z M215.8,92.3c0.1-2.1,0.6-4,1.7-5.7c1-1.7,2.4-3,4.1-4c1.7-1,3.6-1.5,5.7-1.5
			c1.9,0,3.4,0.3,4.3,0.9c1,0.6,1.3,1.3,1.1,2.3c-0.1,0.5-0.3,0.9-0.6,1.1c-0.3,0.2-0.7,0.4-1.1,0.4c-0.4,0-0.9,0-1.4-0.1
			c-2.1-0.3-4-0.3-5.7,0.2c-1.7,0.5-3,1.2-4,2.4c-1,1.1-1.5,2.5-1.5,4.1H215.8z"/>
		<path class="st0" d="M240.9,110.2c-0.7,0-1.3-0.2-1.7-0.7c-0.5-0.5-0.7-1-0.7-1.7V83.9c0-0.7,0.2-1.3,0.7-1.8
			c0.5-0.4,1-0.7,1.7-0.7c0.7,0,1.3,0.2,1.8,0.7c0.4,0.4,0.7,1,0.7,1.8v23.9c0,0.7-0.2,1.3-0.7,1.7
			C242.2,110,241.6,110.2,240.9,110.2z M262.9,110.2c-0.7,0-1.3-0.2-1.8-0.7c-0.5-0.5-0.7-1-0.7-1.7V94.6c0-2.1-0.4-3.7-1.2-5.1
			c-0.8-1.3-1.8-2.3-3.1-2.9c-1.3-0.6-2.8-1-4.5-1c-1.6,0-3,0.3-4.2,0.9c-1.3,0.6-2.3,1.5-3,2.5c-0.8,1-1.1,2.3-1.1,3.6h-3.1
			c0-2.2,0.6-4.2,1.7-5.9c1.1-1.7,2.6-3.1,4.4-4.1c1.9-1,3.9-1.5,6.2-1.5c2.4,0,4.6,0.5,6.6,1.5c1.9,1,3.4,2.5,4.6,4.5
			c1.1,2,1.7,4.4,1.7,7.3v13.2c0,0.7-0.2,1.2-0.7,1.7C264.1,110,263.5,110.2,262.9,110.2z"/>
		<path class="st0" d="M286.3,110.3c-2.6,0-5-0.6-7-1.9c-2.1-1.3-3.7-3-4.9-5.2c-1.2-2.2-1.8-4.7-1.8-7.4c0-2.8,0.6-5.3,1.9-7.5
			c1.3-2.2,3-3.9,5.2-5.2c2.2-1.3,4.6-1.9,7.4-1.9c2.8,0,5.2,0.6,7.4,1.9c2.2,1.3,3.9,3,5.2,5.2c1.3,2.2,1.9,4.7,2,7.4l-1.9,0.5
			c0,2.7-0.6,5.1-1.8,7.2c-1.2,2.1-2.8,3.8-4.8,5C291.2,109.7,288.9,110.3,286.3,110.3z M287.1,106c1.9,0,3.6-0.4,5-1.3
			s2.6-2.1,3.5-3.7c0.9-1.6,1.3-3.3,1.3-5.2c0-2-0.4-3.7-1.3-5.3c-0.9-1.6-2-2.8-3.5-3.7s-3.1-1.3-5-1.3c-1.8,0-3.5,0.4-5,1.3
			c-1.5,0.9-2.7,2.1-3.5,3.7c-0.9,1.6-1.3,3.3-1.3,5.3c0,1.9,0.4,3.7,1.3,5.2c0.9,1.6,2,2.8,3.5,3.7
			C283.7,105.6,285.3,106,287.1,106z M299.2,110.2c-0.7,0-1.3-0.2-1.7-0.7c-0.5-0.5-0.7-1-0.7-1.7v-8.4l1-5l3.9,1.5v12
			c0,0.7-0.2,1.3-0.7,1.7C300.5,110,299.9,110.2,299.2,110.2z"/>
		<path class="st0" d="M308.1,86.7c-0.6,0-1.2-0.2-1.6-0.6c-0.4-0.4-0.6-0.9-0.6-1.5c0-0.6,0.2-1.1,0.6-1.5c0.4-0.4,0.9-0.6,1.6-0.6
			h12.6c0.6,0,1.2,0.2,1.6,0.6c0.4,0.4,0.6,0.9,0.6,1.5c0,0.6-0.2,1.1-0.6,1.5c-0.4,0.4-0.9,0.6-1.6,0.6H308.1z M320.3,110.1
			c-1.8,0-3.4-0.4-4.8-1.3s-2.6-2.1-3.4-3.6c-0.8-1.5-1.2-3.3-1.2-5.2V74.8c0-0.7,0.2-1.3,0.7-1.7c0.4-0.5,1-0.7,1.7-0.7
			c0.7,0,1.3,0.2,1.7,0.7c0.5,0.5,0.7,1,0.7,1.7V100c0,1.6,0.4,2.9,1.3,3.9c0.9,1,2,1.5,3.3,1.5h1.6c0.6,0,1.1,0.2,1.5,0.7
			c0.4,0.5,0.6,1,0.6,1.7c0,0.7-0.3,1.3-0.8,1.7c-0.5,0.4-1.2,0.7-2,0.7H320.3z"/>
		<path class="st0" d="M333.6,76.5c-0.9,0-1.6-0.3-2.3-0.9c-0.6-0.6-0.9-1.4-0.9-2.3c0-0.9,0.3-1.7,1-2.3c0.6-0.6,1.4-0.9,2.3-0.9
			c0.8,0,1.6,0.3,2.2,0.9c0.6,0.6,1,1.4,1,2.3c0,0.9-0.3,1.7-0.9,2.3C335.3,76.2,334.5,76.5,333.6,76.5z M333.7,110.1
			c-0.7,0-1.3-0.2-1.8-0.7c-0.5-0.5-0.7-1-0.7-1.7V83.9c0-0.7,0.2-1.3,0.7-1.8c0.5-0.4,1-0.7,1.8-0.7c0.7,0,1.3,0.2,1.7,0.7
			c0.5,0.4,0.7,1,0.7,1.8v23.9c0,0.7-0.2,1.3-0.7,1.7C335,109.9,334.4,110.1,333.7,110.1z"/>
		<path class="st0" d="M359.2,110.3c-2.8,0-5.3-0.6-7.5-1.9c-2.2-1.2-3.9-3-5.1-5.1c-1.2-2.2-1.9-4.7-1.9-7.5c0-2.9,0.6-5.4,1.9-7.6
			c1.2-2.2,3-3.9,5.1-5.1c2.2-1.2,4.7-1.9,7.5-1.9c2.8,0,5.3,0.6,7.5,1.9c2.2,1.2,3.9,3,5.1,5.1c1.2,2.2,1.9,4.7,1.9,7.6
			c0,2.8-0.6,5.3-1.9,7.5c-1.3,2.2-3,3.9-5.1,5.1C364.5,109.7,362,110.3,359.2,110.3z M359.2,106c1.9,0,3.6-0.4,5.1-1.3
			c1.5-0.9,2.6-2.1,3.5-3.6c0.8-1.5,1.3-3.3,1.3-5.3c0-2-0.4-3.8-1.3-5.3c-0.8-1.6-2-2.8-3.5-3.6c-1.5-0.9-3.2-1.3-5.1-1.3
			c-1.9,0-3.6,0.4-5.1,1.3c-1.5,0.9-2.6,2.1-3.5,3.6c-0.8,1.6-1.3,3.3-1.3,5.3c0,2,0.4,3.8,1.3,5.3c0.8,1.5,2,2.7,3.5,3.6
			C355.6,105.6,357.3,106,359.2,106z"/>
		<path class="st0" d="M384,110.2c-0.7,0-1.3-0.2-1.7-0.7c-0.5-0.5-0.7-1-0.7-1.7V83.9c0-0.7,0.2-1.3,0.7-1.8c0.5-0.4,1-0.7,1.7-0.7
			c0.7,0,1.3,0.2,1.8,0.7c0.4,0.4,0.7,1,0.7,1.8v23.9c0,0.7-0.2,1.3-0.7,1.7C385.3,110,384.7,110.2,384,110.2z M406,110.2
			c-0.7,0-1.3-0.2-1.8-0.7s-0.7-1-0.7-1.7V94.6c0-2.1-0.4-3.7-1.2-5.1c-0.8-1.3-1.8-2.3-3.1-2.9c-1.3-0.6-2.8-1-4.5-1
			c-1.6,0-3,0.3-4.2,0.9c-1.3,0.6-2.3,1.5-3,2.5c-0.8,1-1.1,2.3-1.1,3.6h-3.1c0-2.2,0.6-4.2,1.7-5.9c1.1-1.7,2.6-3.1,4.4-4.1
			c1.9-1,3.9-1.5,6.2-1.5c2.4,0,4.6,0.5,6.6,1.5c1.9,1,3.4,2.5,4.6,4.5c1.1,2,1.7,4.4,1.7,7.3v13.2c0,0.7-0.2,1.2-0.7,1.7
			S406.6,110.2,406,110.2z"/>
		<path class="st0" d="M429.4,110.3c-2.6,0-5-0.6-7-1.9c-2.1-1.3-3.7-3-4.9-5.2c-1.2-2.2-1.8-4.7-1.8-7.4c0-2.8,0.6-5.3,1.9-7.5
			c1.3-2.2,3-3.9,5.2-5.2c2.2-1.3,4.6-1.9,7.4-1.9c2.8,0,5.2,0.6,7.4,1.9c2.2,1.3,3.9,3,5.2,5.2c1.3,2.2,1.9,4.7,2,7.4l-1.9,0.5
			c0,2.7-0.6,5.1-1.8,7.2c-1.2,2.1-2.8,3.8-4.8,5C434.3,109.7,432,110.3,429.4,110.3z M430.2,106c1.9,0,3.6-0.4,5-1.3
			c1.5-0.9,2.6-2.1,3.5-3.7c0.9-1.6,1.3-3.3,1.3-5.2c0-2-0.4-3.7-1.3-5.3c-0.9-1.6-2-2.8-3.5-3.7c-1.5-0.9-3.1-1.3-5-1.3
			c-1.8,0-3.5,0.4-5,1.3c-1.5,0.9-2.7,2.1-3.5,3.7c-0.9,1.6-1.3,3.3-1.3,5.3c0,1.9,0.4,3.7,1.3,5.2c0.9,1.6,2,2.8,3.5,3.7
			C426.8,105.6,428.4,106,430.2,106z M442.3,110.2c-0.7,0-1.3-0.2-1.7-0.7c-0.5-0.5-0.7-1-0.7-1.7v-8.4l1-5l3.9,1.5v12
			c0,0.7-0.2,1.3-0.7,1.7C443.6,110,443,110.2,442.3,110.2z"/>
		<path class="st0" d="M459.2,110.1c-1.5,0-2.8-0.4-3.9-1.2c-1.2-0.8-2.1-1.9-2.7-3.3s-1-3-1-4.9V71.6c0-0.7,0.2-1.3,0.7-1.7
			c0.4-0.4,1-0.7,1.7-0.7c0.7,0,1.3,0.2,1.8,0.7c0.4,0.4,0.7,1,0.7,1.7v29.1c0,1.4,0.3,2.5,0.8,3.4c0.5,0.9,1.2,1.3,2,1.3h1.3
			c0.7,0,1.2,0.2,1.6,0.7c0.4,0.4,0.6,1,0.6,1.8c0,0.7-0.3,1.3-0.9,1.7c-0.6,0.4-1.3,0.7-2.2,0.7H459.2z"/>
	</g>
	<circle class="st1" cx="45.2" cy="56.9" r="38.4"/>
	<line class="st2" x1="45.2" y1="27.8" x2="45.2" y2="85.9"/>
	<g>
		<path class="st0" d="M52.5,83.7c-4.9-3.4-14.8-10.1-12.1-17.2c1.3-3,4.3-4.3,6.6-6.1c3.7-2.8,1.7-5.9-1.7-8.6
			c-2.3-2-4.9-3.6-6.4-6.6c-2.7-5.4,3.1-9.7,7.2-11.8c1.3-0.7,2.6-1.5,3.9-2.5c1.1-0.9,2.8-0.8,3.7,0.4c0.9,1.1,0.8,2.8-0.4,3.7
			c-0.5,0.4-1,0.6-1.6,0.6c-1.4,0.1-2.8,0.4-4.1,1c-2.8,1.3-7.4,3.6-5.9,7.2c2,3.6,6.2,5.6,8.6,9.2c2.3,3.1,1.2,7.2-2,9.2
			c-2.2,1.6-5,2.6-6.3,5c-1.6,3.9,1.7,7.6,4.3,10.5c2,2.1,4.1,3.9,6.4,5.7C52.9,83.6,52.7,83.9,52.5,83.7L52.5,83.7z"/>
	</g>
</g>
<g id="Layer_2">
	<g>
	</g>
	<g>
	</g>
	<g>
	</g>
	<g>
	</g>
	<g>
	</g>
	<g>
	</g>
</g>
</svg>
